Coordinates
nRows=212
nColumns=2
inDegrees=yes
endheader
time	ankle_angle_r	
4.42411	  9.552002	
4.45738	  9.613037	
4.49064	  9.552002	
4.5239	  9.552002	
4.55717	  9.613037	
4.59043	  9.506226	
4.6237	  9.552002	
4.65696	  9.582520	
4.69022	  9.536743	
4.72349	  9.521484	
4.75675	  9.628296	
4.79002	  9.536743	
4.82328	  9.521484	
4.85654	  9.613037	
4.88981	  9.536743	
4.92307	  9.490967	
4.95634	  9.613037	
4.9896	  9.552002	
5.02286	  9.521484	
5.05613	  9.628296	
5.08939	  9.521484	
5.12266	  9.475708	
5.15592	  9.567261	
5.18918	  9.536743	
5.22245	  9.521484	
5.25571	  9.567261	
5.28898	  9.536743	
5.32224	  9.490967	
5.3555	  9.552002	
5.38877	  9.567261	
5.42203	  9.536743	
5.4553	  9.597778	
5.48856	  9.552002	
5.52182	  9.567261	
5.55509	  9.613037	
5.58835	  9.552002	
5.62162	  9.597778	
5.65488	  9.643555	
5.68814	  9.567261	
5.72141	  9.628296	
5.75467	  9.628296	
5.78794	  9.567261	
5.8212	  9.658813	
5.85446	  9.658813	
5.88773	  9.597778	
5.92099	  9.643555	
5.95426	  9.658813	
5.98752	  9.613037	
6.02078	  9.643555	
6.05405	  9.658813	
6.08731	  9.597778	
6.12058	  9.674072	
6.15384	  9.658813	
6.1871	  9.613037	
6.22037	  9.704590	
6.25363	  9.658813	
6.2869	  9.628296	
6.32016	  9.689331	
6.35342	  9.689331	
6.38669	  9.582520	
6.41995	  9.689331	
6.45322	  9.658813	
6.48648	  9.597778	
6.51974	  9.689331	
6.55301	  9.674072	
6.58627	  9.582520	
6.61954	  9.658813	
6.6528	  9.658813	
6.68606	  9.552002	
6.71933	  9.643555	
6.75259	  9.582520	
6.78586	  9.552002	
6.81912	  9.613037	
6.85238	  9.628296	
6.88565	  9.506226	
6.91891	  9.597778	
6.95218	  9.643555	
6.98544	  9.552002	
7.0187	  9.643555	
7.05197	  9.674072	
7.08523	  9.521484	
7.1185	  9.582520	
7.15176	  9.613037	
7.18502	  9.521484	
7.21829	  9.536743	
7.25155	  9.597778	
7.28482	  9.567261	
7.31808	  9.567261	
7.35134	  9.521484	
7.38461	  9.506226	
7.41787	  9.567261	
7.45114	  9.552002	
7.4844	  9.506226	
7.51766	  9.597778	
7.55093	  9.552002	
7.58419	  9.521484	
7.61746	  9.597778	
7.65072	  9.536743	
7.68398	  9.567261	
7.71725	  9.613037	
7.75051	  9.536743	
7.78378	  9.597778	
7.81704	  9.613037	
7.8503	  9.552002	
7.88357	  9.552002	
7.91683	  9.597778	
7.9501	  9.536743	
7.98336	  9.567261	
8.01662	  9.613037	
8.04989	  9.521484	
8.08315	  9.552002	
8.11642	  9.628296	
8.14968	  9.521484	
8.18294	  9.567261	
8.21621	  9.628296	
8.24947	  9.536743	
8.28274	  9.521484	
8.316	  9.582520	
8.34926	  9.536743	
8.38253	  9.521484	
8.41579	  9.643555	
8.44906	  9.536743	
8.48232	  9.536743	
8.51558	  9.597778	
8.54885	  9.552002	
8.58211	  9.521484	
8.61538	  9.613037	
8.64864	  9.536743	
8.6819	  9.521484	
8.71517	  9.628296	
8.74843	  9.552002	
8.7817	  9.490967	
8.81496	  9.567261	
8.84822	  9.567261	
8.88149	  9.521484	
8.91475	  9.552002	
8.94802	  9.475708	
8.98128	  9.521484	
9.01454	  9.552002	
9.04781	  9.521484	
9.08107	  9.475708	
9.11434	  9.582520	
9.1476	  9.460449	
9.18086	  9.567261	
9.21413	  9.597778	
9.24739	  9.536743	
9.28066	  9.552002	
9.31392	  9.521484	
9.34718	  9.506226	
9.38045	  9.597778	
9.41371	  9.597778	
9.44698	  9.506226	
9.48024	  9.582520	
9.5135	  9.643555	
9.54677	  9.490967	
9.58003	  9.613037	
9.6133	  9.613037	
9.64656	  9.552002	
9.67982	  9.536743	
9.71309	  9.597778	
9.74635	  9.536743	
9.77962	  9.613037	
9.81288	  9.597778	
9.84614	  9.613037	
9.87941	  9.658813	
9.91267	  9.658813	
9.94594	  9.613037	
9.9792	  9.689331	
10.0125	  9.704590	
10.0457	  9.597778	
10.079	  9.689331	
10.1123	  9.689331	
10.1455	  9.613037	
10.1788	  9.689331	
10.212	  9.704590	
10.2453	  9.582520	
10.2786	  9.689331	
10.3118	  9.674072	
10.3451	  9.643555	
10.3784	  9.658813	
10.4116	  9.674072	
10.4449	  9.597778	
10.4782	  9.628296	
10.5114	  9.674072	
10.5447	  9.567261	
10.578	  9.674072	
10.6112	  9.658813	
10.6445	  9.597778	
10.6777	  9.643555	
10.711	  9.674072	
10.7443	  9.582520	
10.7775	  9.674072	
10.8108	  9.628296	
10.8441	  9.613037	
10.8773	  9.643555	
10.9106	  9.582520	
10.9439	  9.582520	
10.9771	  9.643555	
11.0104	  9.552002	
11.0436	  9.582520	
11.0769	  9.628296	
11.1102	  9.552002	
11.1434	  9.521484	
11.1767	  9.582520	
11.21	  9.536743	
11.2432	  9.506226	
11.2765	  9.582520	
11.3098	  9.460449	
11.343	  9.506226	
11.3763	  9.567261	
11.4096	  9.490967	
11.4428	  9.490967	
